<svg width="40" height="20" viewBox="0 0 40 20" fill="none" xmlns="http://www.w3.org/2000/svg">
<rect width="40" height="20" rx="10" fill="#DAFFF8"/>
<path d="M11.564 12.296V10.976L15.488 5.36H17.444V10.832H18.5V12.296H17.444V14H15.764V12.296H11.564ZM15.872 7.16L13.412 10.832H15.872V7.16ZM20.5056 14.084C20.2016 14.084 19.9496 13.992 19.7496 13.808C19.5576 13.616 19.4616 13.38 19.4616 13.1C19.4616 12.82 19.5576 12.588 19.7496 12.404C19.9496 12.212 20.2016 12.116 20.5056 12.116C20.8016 12.116 21.0456 12.212 21.2376 12.404C21.4296 12.588 21.5256 12.82 21.5256 13.1C21.5256 13.38 21.4296 13.616 21.2376 13.808C21.0456 13.992 20.8016 14.084 20.5056 14.084ZM24.1508 9.368C23.3508 8.952 22.9508 8.308 22.9508 7.436C22.9508 7.004 23.0588 6.612 23.2748 6.26C23.4988 5.9 23.8308 5.616 24.2708 5.408C24.7188 5.192 25.2628 5.084 25.9028 5.084C26.5428 5.084 27.0828 5.192 27.5228 5.408C27.9708 5.616 28.3028 5.9 28.5188 6.26C28.7428 6.612 28.8548 7.004 28.8548 7.436C28.8548 7.876 28.7468 8.264 28.5308 8.6C28.3148 8.928 28.0268 9.184 27.6668 9.368C28.1068 9.56 28.4508 9.84 28.6988 10.208C28.9468 10.576 29.0708 11.012 29.0708 11.516C29.0708 12.06 28.9308 12.536 28.6508 12.944C28.3788 13.344 28.0028 13.652 27.5228 13.868C27.0428 14.084 26.5028 14.192 25.9028 14.192C25.3028 14.192 24.7628 14.084 24.2828 13.868C23.8108 13.652 23.4348 13.344 23.1548 12.944C22.8828 12.536 22.7468 12.06 22.7468 11.516C22.7468 11.012 22.8708 10.576 23.1188 10.208C23.3668 9.832 23.7108 9.552 24.1508 9.368ZM27.2228 7.676C27.2228 7.284 27.1028 6.98 26.8628 6.764C26.6308 6.548 26.3108 6.44 25.9028 6.44C25.5028 6.44 25.1828 6.548 24.9428 6.764C24.7108 6.98 24.5948 7.288 24.5948 7.688C24.5948 8.048 24.7148 8.336 24.9548 8.552C25.2028 8.768 25.5188 8.876 25.9028 8.876C26.2868 8.876 26.6028 8.768 26.8508 8.552C27.0988 8.328 27.2228 8.036 27.2228 7.676ZM25.9028 10.1C25.4468 10.1 25.0748 10.216 24.7868 10.448C24.5068 10.68 24.3668 11.012 24.3668 11.444C24.3668 11.844 24.5028 12.172 24.7748 12.428C25.0548 12.676 25.4308 12.8 25.9028 12.8C26.3748 12.8 26.7468 12.672 27.0188 12.416C27.2908 12.16 27.4268 11.836 27.4268 11.444C27.4268 11.02 27.2868 10.692 27.0068 10.46C26.7268 10.22 26.3588 10.1 25.9028 10.1Z" fill="#3A8375"/>
</svg>
