<svg width="40" height="20" viewBox="0 0 40 20" fill="none" xmlns="http://www.w3.org/2000/svg">
<rect width="40" height="20" rx="10" fill="#DAFFF8"/>
<path d="M11.564 12.296V10.976L15.488 5.36H17.444V10.832H18.5V12.296H17.444V14H15.764V12.296H11.564ZM15.872 7.16L13.412 10.832H15.872V7.16ZM20.5056 14.084C20.2016 14.084 19.9496 13.992 19.7496 13.808C19.5576 13.616 19.4616 13.38 19.4616 13.1C19.4616 12.82 19.5576 12.588 19.7496 12.404C19.9496 12.212 20.2016 12.116 20.5056 12.116C20.8016 12.116 21.0456 12.212 21.2376 12.404C21.4296 12.588 21.5256 12.82 21.5256 13.1C21.5256 13.38 21.4296 13.616 21.2376 13.808C21.0456 13.992 20.8016 14.084 20.5056 14.084ZM24.6308 11.54C24.6948 11.892 24.8388 12.164 25.0628 12.356C25.2948 12.54 25.6028 12.632 25.9868 12.632C26.4828 12.632 26.8428 12.428 27.0668 12.02C27.2908 11.604 27.4028 10.908 27.4028 9.932C27.2188 10.188 26.9588 10.388 26.6228 10.532C26.2948 10.676 25.9388 10.748 25.5548 10.748C25.0428 10.748 24.5788 10.644 24.1628 10.436C23.7548 10.22 23.4308 9.904 23.1908 9.488C22.9508 9.064 22.8308 8.552 22.8308 7.952C22.8308 7.064 23.0948 6.36 23.6228 5.84C24.1508 5.312 24.8708 5.048 25.7828 5.048C26.9188 5.048 27.7188 5.412 28.1828 6.14C28.6548 6.868 28.8908 7.964 28.8908 9.428C28.8908 10.468 28.7988 11.32 28.6148 11.984C28.4388 12.648 28.1308 13.152 27.6908 13.496C27.2588 13.84 26.6668 14.012 25.9148 14.012C25.3228 14.012 24.8188 13.9 24.4028 13.676C23.9868 13.444 23.6668 13.144 23.4428 12.776C23.2268 12.4 23.1028 11.988 23.0708 11.54H24.6308ZM25.9028 9.38C26.3188 9.38 26.6468 9.252 26.8868 8.996C27.1268 8.74 27.2468 8.396 27.2468 7.964C27.2468 7.492 27.1188 7.128 26.8628 6.872C26.6148 6.608 26.2748 6.476 25.8428 6.476C25.4108 6.476 25.0668 6.612 24.8108 6.884C24.5628 7.148 24.4388 7.5 24.4388 7.94C24.4388 8.364 24.5588 8.712 24.7988 8.984C25.0468 9.248 25.4148 9.38 25.9028 9.38Z" fill="#3A8375"/>
</svg>
