<svg width="50" height="30" viewBox="0 0 50 30" fill="none" xmlns="http://www.w3.org/2000/svg">
<path d="M0 15C0 6.71573 6.71573 0 15 0H50V30H15C6.71573 30 0 23.2843 0 15Z" fill="#DAFFF8"/>
<path d="M28.564 17.296V15.976L32.488 10.36H34.444V15.832H35.5V17.296H34.444V19H32.764V17.296H28.564ZM32.872 12.16L30.412 15.832H32.872V12.16ZM37.5056 19.084C37.2016 19.084 36.9496 18.992 36.7496 18.808C36.5576 18.616 36.4616 18.38 36.4616 18.1C36.4616 17.82 36.5576 17.588 36.7496 17.404C36.9496 17.212 37.2016 17.116 37.5056 17.116C37.8016 17.116 38.0456 17.212 38.2376 17.404C38.4296 17.588 38.5256 17.82 38.5256 18.1C38.5256 18.38 38.4296 18.616 38.2376 18.808C38.0456 18.992 37.8016 19.084 37.5056 19.084ZM41.6308 16.54C41.6948 16.892 41.8388 17.164 42.0628 17.356C42.2948 17.54 42.6028 17.632 42.9868 17.632C43.4828 17.632 43.8428 17.428 44.0668 17.02C44.2908 16.604 44.4028 15.908 44.4028 14.932C44.2188 15.188 43.9588 15.388 43.6228 15.532C43.2948 15.676 42.9388 15.748 42.5548 15.748C42.0428 15.748 41.5788 15.644 41.1628 15.436C40.7548 15.22 40.4308 14.904 40.1908 14.488C39.9508 14.064 39.8308 13.552 39.8308 12.952C39.8308 12.064 40.0948 11.36 40.6228 10.84C41.1508 10.312 41.8708 10.048 42.7828 10.048C43.9188 10.048 44.7188 10.412 45.1828 11.14C45.6548 11.868 45.8908 12.964 45.8908 14.428C45.8908 15.468 45.7988 16.32 45.6148 16.984C45.4388 17.648 45.1308 18.152 44.6908 18.496C44.2588 18.84 43.6668 19.012 42.9148 19.012C42.3228 19.012 41.8188 18.9 41.4028 18.676C40.9868 18.444 40.6668 18.144 40.4428 17.776C40.2268 17.4 40.1028 16.988 40.0708 16.54H41.6308ZM42.9028 14.38C43.3188 14.38 43.6468 14.252 43.8868 13.996C44.1268 13.74 44.2468 13.396 44.2468 12.964C44.2468 12.492 44.1188 12.128 43.8628 11.872C43.6148 11.608 43.2748 11.476 42.8428 11.476C42.4108 11.476 42.0668 11.612 41.8108 11.884C41.5628 12.148 41.4388 12.5 41.4388 12.94C41.4388 13.364 41.5588 13.712 41.7988 13.984C42.0468 14.248 42.4148 14.38 42.9028 14.38Z" fill="#3A8375"/>
<path d="M14.0489 7.92705C14.3483 7.00574 15.6517 7.00574 15.9511 7.92705L17.0206 11.2188C17.1545 11.6309 17.5385 11.9098 17.9717 11.9098H21.4329C22.4016 11.9098 22.8044 13.1494 22.0207 13.7188L19.2205 15.7533C18.87 16.0079 18.7234 16.4593 18.8572 16.8713L19.9268 20.1631C20.2261 21.0844 19.1717 21.8506 18.388 21.2812L15.5878 19.2467C15.2373 18.9921 14.7627 18.9921 14.4122 19.2467L11.612 21.2812C10.8283 21.8506 9.77385 21.0844 10.0732 20.1631L11.1428 16.8713C11.2766 16.4593 11.13 16.0079 10.7795 15.7533L7.97933 13.7188C7.19562 13.1494 7.59839 11.9098 8.56712 11.9098H12.0283C12.4615 11.9098 12.8455 11.6309 12.9794 11.2188L14.0489 7.92705Z" fill="#3A8375"/>
</svg>
