<svg width="40" height="20" viewBox="0 0 40 20" fill="none" xmlns="http://www.w3.org/2000/svg">
<rect width="40" height="20" rx="10" fill="#DAFFF8"/>
<path d="M11.564 12.296V10.976L15.488 5.36H17.444V10.832H18.5V12.296H17.444V14H15.764V12.296H11.564ZM15.872 7.16L13.412 10.832H15.872V7.16ZM20.5056 14.084C20.2016 14.084 19.9496 13.992 19.7496 13.808C19.5576 13.616 19.4616 13.38 19.4616 13.1C19.4616 12.82 19.5576 12.588 19.7496 12.404C19.9496 12.212 20.2016 12.116 20.5056 12.116C20.8016 12.116 21.0456 12.212 21.2376 12.404C21.4296 12.588 21.5256 12.82 21.5256 13.1C21.5256 13.38 21.4296 13.616 21.2376 13.808C21.0456 13.992 20.8016 14.084 20.5056 14.084ZM27.2228 7.436C27.1428 7.1 27.0028 6.848 26.8028 6.68C26.6108 6.512 26.3308 6.428 25.9628 6.428C25.4108 6.428 25.0028 6.652 24.7388 7.1C24.4828 7.54 24.3508 8.26 24.3428 9.26C24.5348 8.94 24.8148 8.692 25.1828 8.516C25.5508 8.332 25.9508 8.24 26.3828 8.24C26.9028 8.24 27.3628 8.352 27.7628 8.576C28.1628 8.8 28.4748 9.128 28.6988 9.56C28.9228 9.984 29.0348 10.496 29.0348 11.096C29.0348 11.664 28.9188 12.172 28.6868 12.62C28.4628 13.06 28.1308 13.404 27.6908 13.652C27.2508 13.9 26.7268 14.024 26.1188 14.024C25.2868 14.024 24.6308 13.84 24.1508 13.472C23.6788 13.104 23.3468 12.592 23.1548 11.936C22.9708 11.272 22.8788 10.456 22.8788 9.488C22.8788 8.024 23.1308 6.92 23.6348 6.176C24.1388 5.424 24.9348 5.048 26.0228 5.048C26.8628 5.048 27.5148 5.276 27.9788 5.732C28.4428 6.188 28.7108 6.756 28.7828 7.436H27.2228ZM25.9988 9.62C25.5748 9.62 25.2188 9.744 24.9308 9.992C24.6428 10.24 24.4988 10.6 24.4988 11.072C24.4988 11.544 24.6308 11.916 24.8948 12.188C25.1668 12.46 25.5468 12.596 26.0348 12.596C26.4668 12.596 26.8068 12.464 27.0548 12.2C27.3108 11.936 27.4388 11.58 27.4388 11.132C27.4388 10.668 27.3148 10.3 27.0668 10.028C26.8268 9.756 26.4708 9.62 25.9988 9.62Z" fill="#3A8375"/>
</svg>
